<svg xmlns="http://www.w3.org/2000/svg" viewBox="0 0 1350 900"><path fill="#fff" d="M0 0h1350v900H0z" paint-order="stroke fill markers"/><path fill="#02983b" d="M800.532 287.169h-256.88V200h256.88z"/><path fill="#004097" d="M773.318 392.495 543.651 511.453V418.85l256.881-131.682v57.935c0 19.547-8.413 37.66-27.214 47.392"/><path fill="#02983b" d="M1100 287.169H837.3V200H1100zM506.879 287.169H250V200h256.879z"/><path fill="#004097" d="M479.675 392.495 250 511.453V418.85l256.88-131.682v57.935c0 19.547-8.425 37.66-27.205 47.392M837.301 363.353v44.71c0 23.452 19.015 42.463 42.47 42.463h220.23v-87.173ZM739.78 712.176h24.985v-154.24H739.78zM532.907 705.564c-22.52 0-36.086-8.654-36.086-19.332 0-10.68 13.565-19.336 36.086-19.336 22.536 0 36.1 8.656 36.1 19.336 0 10.678-13.564 19.332-36.1 19.332m36.1-126.949h-32.841c.182-1.868.283-3.762.283-5.724v-8.872h-84.805v17.746h59.28c-1.572 8.999-12.612 35.352-64.064 50.574l6.72 14.046s59.595-11.374 77.701-50.025h37.726v16.454h-43.704v17.747h43.704v24.951c-9.628-4.016-21.767-6.376-36.079-6.376-38.116 0-61.074 16.608-61.074 37.096 0 20.485 22.958 37.079 61.074 37.079s61.06-16.592 61.072-37.054v-128.32h-24.993ZM879.066 686.009v-37.385h48.575v-17.749H829.73v-49.109h97.912V564.02H804.696v70.432c0 7.828 6.35 14.172 14.176 14.172h35.193v37.385h-62.778v17.75h150.551v-17.75ZM627.32 581.766h58.71c-3.104 24.8-16.649 65.628-65.266 88.87l7.954 15.71c75.223-28.63 84.423-96.268 84.448-117.002v-5.325H627.32Z"/></svg>